<svg width="500" height="508" viewBox="0 0 500 508" fill="none" xmlns="http://www.w3.org/2000/svg">
<path d="M172.167 53.911C172.167 53.911 251.509 22.2423 327.389 66.9371C403.269 111.632 439.721 203.591 471.166 277.189C502.611 350.788 481.372 427.158 421.588 463.399C361.804 499.639 323.121 449.806 240.601 449.662C158.08 449.519 135.541 462.592 68.311 415.358C1.08099 368.124 -8.23601 252.34 48.095 164.878C104.426 77.4171 172.167 53.911 172.167 53.911Z" fill="#567BD2" fill-opacity="0.03"/>
<path opacity="0.7" d="M172.167 53.911C172.167 53.911 251.509 22.2423 327.389 66.9371C403.269 111.632 439.721 203.591 471.166 277.189C502.611 350.788 481.372 427.158 421.588 463.399C361.804 499.639 323.121 449.806 240.601 449.662C158.08 449.519 135.541 462.592 68.311 415.358C1.08099 368.124 -8.23601 252.34 48.095 164.878C104.426 77.4171 172.167 53.911 172.167 53.911Z" fill="white" fill-opacity="0.12"/>
<path d="M81.383 66.4017C83.322 65.3278 84.203 66.2229 84.908 65.3278C85.613 64.4327 82.969 62.105 88.257 59.7763C88.257 59.7763 88.609 54.7624 95.836 54.5835C103.062 54.4047 101.123 59.5975 103.062 60.8513C105.001 62.105 105.529 60.135 107.468 61.3887C109.407 62.6425 108.526 65.1489 110.112 65.5076C111.698 65.8652 113.813 63.8962 115.752 65.1489C117.691 66.4027 117.691 67.4766 118.572 67.4766C119.453 67.4766 121.216 66.7603 122.273 67.4766C123.33 68.1929 124.564 69.088 124.564 69.088H79.974C79.974 69.088 79.445 67.4766 81.383 66.4017Z" stroke="#92989B" stroke-miterlimit="10" stroke-linecap="round" stroke-linejoin="round"/>
<path d="M107.761 65.6661C107.97 65.7883 108.228 65.9125 108.548 66.0417" stroke="#92989B" stroke-miterlimit="10" stroke-linecap="round" stroke-linejoin="round"/>
<path d="M98.222 57.3013C98.222 57.3013 99.62 57.8479 99.943 59.4867C100.266 61.1256 101.019 62.2188 101.879 62.3285C102.74 62.4382 105.966 62.1101 106.504 63.312C106.693 63.7346 106.736 64.0892 106.805 64.4093" stroke="#92989B" stroke-miterlimit="10" stroke-linecap="round" stroke-linejoin="round"/>
<path d="M112.227 65.2719H109.132" stroke="#92989B" stroke-miterlimit="10" stroke-linecap="round" stroke-linejoin="round"/>
<path d="M84.908 65.2719H64.067C64.067 65.2719 62.392 60.1655 68.534 56.7619C74.676 53.3583 77.468 56.1949 79.702 53.3583C81.935 50.5216 73.56 43.1464 90.312 35.7703C90.312 35.7703 91.428 19.8851 114.323 19.3182C137.217 18.7513 131.075 35.2034 137.217 39.1749C143.359 43.1464 145.035 36.9062 151.177 40.8767C157.32 44.8482 154.528 52.7913 159.553 53.9262C164.578 55.0611 171.279 48.8208 177.422 52.7913C183.564 56.7619 183.564 60.1665 186.356 60.1665C189.148 60.1665 194.732 57.8977 198.083 60.1665C201.433 62.4362 205.342 65.2729 205.342 65.2729H115.751" stroke="#92989B" stroke-miterlimit="10" stroke-linecap="round" stroke-linejoin="round"/>
<path d="M152.107 54.4322C152.77 54.8213 153.587 55.2176 154.599 55.629" stroke="#92989B" stroke-miterlimit="10" stroke-linecap="round" stroke-linejoin="round"/>
<path d="M149.079 50.4505C148.859 49.4345 148.723 48.3108 148.125 46.9727C146.421 43.1637 136.198 44.2031 133.471 43.8566C130.745 43.5102 128.359 40.0476 127.337 34.8549C126.315 29.6611 121.884 27.9298 121.884 27.9298" stroke="#92989B" stroke-miterlimit="10" stroke-linecap="round" stroke-linejoin="round"/>
<path d="M374.678 65.8347C377.477 64.2843 378.749 65.5767 379.766 64.2843C380.784 62.9919 376.967 59.631 384.6 56.2711C384.6 56.2711 385.109 49.0331 395.54 48.7751C405.971 48.517 403.173 56.013 405.971 57.8225C408.77 59.632 409.533 56.7893 412.332 58.5977C415.131 60.4072 413.859 64.0262 416.148 64.5434C418.438 65.0605 421.491 62.2167 424.289 64.0262C427.088 65.8357 427.088 67.3861 428.36 67.3861C429.632 67.3861 432.177 66.3519 433.703 67.3861C435.229 68.4204 437.01 69.7128 437.01 69.7128H372.642C372.642 69.7128 371.879 67.3861 374.678 65.8347Z" stroke="#92989B" stroke-miterlimit="10" stroke-linecap="round" stroke-linejoin="round"/>
<path d="M412.755 64.773C413.057 64.9498 413.429 65.1306 413.891 65.3186" stroke="#92989B" stroke-miterlimit="10" stroke-linecap="round" stroke-linejoin="round"/>
<path d="M398.985 52.6978C398.985 52.6978 401.003 53.4862 401.469 55.8525C401.935 58.2188 403.022 59.7966 404.264 59.9541C405.506 60.1116 410.164 59.6381 410.94 61.3734C411.213 61.983 411.275 62.4951 411.375 62.9574" stroke="#92989B" stroke-miterlimit="10" stroke-linecap="round" stroke-linejoin="round"/>
<path d="M87.797 219.176C89.917 218.001 90.88 218.979 91.651 218.001C92.422 217.022 89.531 214.477 95.312 211.931C95.312 211.931 95.697 206.449 103.599 206.253C111.5 206.057 109.38 211.735 111.5 213.106C113.62 214.477 114.198 212.323 116.318 213.693C118.438 215.064 117.474 217.805 119.209 218.197C120.943 218.588 123.256 216.435 125.376 217.805C127.496 219.176 127.496 220.35 128.459 220.35C129.422 220.35 131.35 219.567 132.506 220.35C133.662 221.133 135.011 222.112 135.011 222.112H86.255C86.255 222.112 85.677 220.35 87.797 219.176Z" stroke="#92989B" stroke-miterlimit="10" stroke-linecap="round" stroke-linejoin="round"/>
<path d="M116.638 218.371C116.867 218.504 117.149 218.641 117.498 218.782" stroke="#92989B" stroke-miterlimit="10" stroke-linecap="round" stroke-linejoin="round"/>
<path d="M106.208 209.225C106.208 209.225 107.737 209.822 108.09 211.614C108.443 213.407 109.266 214.602 110.207 214.721C111.148 214.841 114.676 214.483 115.264 215.797C115.471 216.259 115.518 216.647 115.593 216.997" stroke="#92989B" stroke-miterlimit="10" stroke-linecap="round" stroke-linejoin="round"/>
<path d="M486.932 349.051L115.419 443.241" stroke="#808080" stroke-miterlimit="10" stroke-linecap="round" stroke-linejoin="round"/>
<path d="M238.072 412.629L9.99999 310.388" stroke="#808080" stroke-miterlimit="10" stroke-linecap="round" stroke-linejoin="round"/>
<path d="M476.6 312.186C476.6 312.186 460.301 313.825 452.041 324.09C452.041 324.09 443.314 312.197 427.638 312.441C423.089 306.871 420.353 299.718 420.35 291.914C420.344 274.138 434.523 259.722 452.019 259.716C469.515 259.71 483.703 274.116 483.71 291.892C483.713 299.598 481.049 306.67 476.605 312.214L476.6 312.186Z" fill="#567BD2"/>
<path opacity="0.4" d="M476.6 312.186C476.6 312.186 460.301 313.825 452.041 324.09C452.041 324.09 443.314 312.197 427.638 312.441C423.089 306.871 420.353 299.718 420.35 291.914C420.344 274.138 434.523 259.722 452.019 259.716C469.515 259.71 483.703 274.116 483.71 291.892C483.713 299.598 481.049 306.67 476.605 312.214L476.6 312.186Z" fill="white"/>
<path d="M450.97 358.328L452.58 274.162L452.981 357.826L450.97 358.328Z" fill="#828282"/>
<path d="M451.755 320.961C451.755 320.961 446.253 310.899 436.349 307.825C436.349 307.825 446.803 310.34 452.03 319.005L451.755 320.961Z" fill="#828282"/>
<path d="M452.168 293.01C452.168 293.01 446.253 282.39 436.349 279.315C436.349 279.315 446.9 282.231 452.127 290.895L452.168 293.01Z" fill="#828282"/>
<path d="M452.005 307.066C452.005 307.066 446.253 296.644 436.35 293.57C436.35 293.57 446.804 296.086 452.031 304.75L452.005 307.066Z" fill="#828282"/>
<path d="M452.571 299.719C452.571 299.719 457.88 289.656 467.436 286.582C467.436 286.582 457.349 289.098 452.305 297.762L452.571 299.719Z" fill="#828282"/>
<path d="M452.571 313.694C452.571 313.694 457.88 303.632 467.436 300.557C467.436 300.557 457.349 303.073 452.305 311.737L452.571 313.694Z" fill="#828282"/>
<path d="M426.413 339.673C426.413 339.673 416.007 340.72 410.732 347.274C410.732 347.274 405.16 339.681 395.151 339.837C392.247 336.28 390.5 331.713 390.498 326.73C390.494 315.381 399.547 306.177 410.718 306.173C421.889 306.169 430.948 315.366 430.952 326.716C430.954 331.637 429.253 336.153 426.416 339.691L426.413 339.673Z" fill="#567BD2"/>
<path opacity="0.2" d="M426.413 339.673C426.413 339.673 416.007 340.72 410.732 347.274C410.732 347.274 405.16 339.681 395.151 339.837C392.247 336.28 390.5 331.713 390.498 326.73C390.494 315.381 399.547 306.177 410.718 306.173C421.889 306.169 430.948 315.366 430.952 326.716C430.954 331.637 429.253 336.153 426.416 339.691L426.413 339.673Z" fill="white"/>
<path d="M410.048 369.134L411.076 315.396L411.332 368.813L410.048 369.134Z" fill="#828282"/>
<path d="M410.549 345.276C410.549 345.276 407.036 338.852 400.713 336.889C400.713 336.889 407.387 338.496 410.725 344.028L410.549 345.276Z" fill="#828282"/>
<path d="M410.813 327.43C410.813 327.43 407.036 320.65 400.713 318.686C400.713 318.686 407.45 320.548 410.787 326.08L410.813 327.43Z" fill="#828282"/>
<path d="M410.709 336.404C410.709 336.404 407.037 329.75 400.713 327.787C400.713 327.787 407.387 329.393 410.725 334.925L410.709 336.404Z" fill="#828282"/>
<path d="M411.07 331.713C411.07 331.713 414.46 325.289 420.561 323.325C420.561 323.325 414.121 324.931 410.9 330.463L411.07 331.713Z" fill="#828282"/>
<path d="M411.07 340.636C411.07 340.636 414.46 334.212 420.561 332.249C420.561 332.249 414.121 333.856 410.9 339.388L411.07 340.636Z" fill="#828282"/>
<path d="M281.736 375.963C281.736 375.963 271.33 377.009 266.055 383.563C266.055 383.563 260.483 375.971 250.474 376.126C247.57 372.569 245.823 368.002 245.821 363.02C245.817 351.67 254.87 342.466 266.041 342.462C277.212 342.458 286.271 351.656 286.275 363.006C286.277 367.926 284.576 372.442 281.739 375.981L281.736 375.963Z" fill="#567BD2"/>
<path opacity="0.4" d="M281.736 375.963C281.736 375.963 271.33 377.009 266.055 383.563C266.055 383.563 260.483 375.971 250.474 376.126C247.57 372.569 245.823 368.002 245.821 363.02C245.817 351.67 254.87 342.466 266.041 342.462C277.212 342.458 286.271 351.656 286.275 363.006C286.277 367.926 284.576 372.442 281.739 375.981L281.736 375.963Z" fill="white"/>
<path d="M265.372 405.424L266.4 351.685L266.655 405.104L265.372 405.424Z" fill="#828282"/>
<path d="M265.873 381.566C265.873 381.566 262.36 375.142 256.037 373.179C256.037 373.179 262.711 374.785 266.049 380.317L265.873 381.566Z" fill="#828282"/>
<path d="M266.137 363.72C266.137 363.72 262.36 356.939 256.037 354.975C256.037 354.975 262.774 356.837 266.111 362.37L266.137 363.72Z" fill="#828282"/>
<path d="M266.032 372.693C266.032 372.693 262.359 366.039 256.036 364.076C256.036 364.076 262.71 365.683 266.048 371.215L266.032 372.693Z" fill="#828282"/>
<path d="M266.394 368.002C266.394 368.002 269.784 361.578 275.885 359.615C275.885 359.615 269.445 361.222 266.224 366.754L266.394 368.002Z" fill="#828282"/>
<path d="M266.394 376.926C266.394 376.926 269.784 370.502 275.885 368.539C275.885 368.539 269.445 370.145 266.224 375.677L266.394 376.926Z" fill="#828282"/>
<path d="M128.761 327.577C128.761 327.577 118.355 328.623 113.08 335.177C113.08 335.177 107.508 327.585 97.499 327.74C94.595 324.183 92.848 319.616 92.846 314.634C92.842 303.284 101.895 294.08 113.066 294.076C124.237 294.072 133.296 303.27 133.3 314.62C133.302 319.54 131.601 324.056 128.764 327.595L128.761 327.577Z" fill="#567BD2"/>
<path opacity="0.2" d="M128.761 327.577C128.761 327.577 118.355 328.623 113.08 335.177C113.08 335.177 107.508 327.585 97.499 327.74C94.595 324.183 92.848 319.616 92.846 314.634C92.842 303.284 101.895 294.08 113.066 294.076C124.237 294.072 133.296 303.27 133.3 314.62C133.302 319.54 131.601 324.056 128.764 327.595L128.761 327.577Z" fill="white"/>
<path d="M112.397 356.173L113.425 303.299L113.681 356.717L112.397 356.173Z" fill="#828282"/>
<path d="M112.898 333.179C112.898 333.179 109.385 326.755 103.062 324.792C103.062 324.792 109.736 326.398 113.074 331.93L112.898 333.179Z" fill="#828282"/>
<path d="M113.162 315.334C113.162 315.334 109.385 308.553 103.062 306.589C103.062 306.589 109.799 308.452 113.136 313.984L113.162 315.334Z" fill="#828282"/>
<path d="M113.058 324.307C113.058 324.307 109.386 317.653 103.062 315.69C103.062 315.69 109.736 317.297 113.074 322.829L113.058 324.307Z" fill="#828282"/>
<path d="M113.419 319.616C113.419 319.616 116.809 313.192 122.91 311.228C122.91 311.228 116.47 312.835 113.249 318.367L113.419 319.616Z" fill="#828282"/>
<path d="M113.419 328.54C113.419 328.54 116.809 322.116 122.91 320.153C122.91 320.153 116.47 321.759 113.249 327.291L113.419 328.54Z" fill="#828282"/>
<path d="M93.79 301.63C93.79 301.63 80.336 302.982 73.516 311.457C73.516 311.457 66.312 301.64 53.371 301.841C49.616 297.243 47.357 291.338 47.355 284.897C47.35 270.222 59.054 258.322 73.498 258.317C87.941 258.312 99.654 270.204 99.659 284.878C99.661 291.239 97.462 297.078 93.794 301.654L93.79 301.63Z" fill="#567BD2"/>
<path opacity="0.4" d="M93.79 301.63C93.79 301.63 80.336 302.982 73.516 311.457C73.516 311.457 66.312 301.64 53.371 301.841C49.616 297.243 47.357 291.338 47.355 284.897C47.35 270.222 59.054 258.322 73.498 258.317C87.941 258.312 99.654 270.204 99.659 284.878C99.661 291.239 97.462 297.078 93.794 301.654L93.79 301.63Z" fill="white"/>
<path d="M72.632 338.603L73.962 270.241L74.292 339.305L72.632 338.603Z" fill="#828282"/>
<path d="M73.281 308.873C73.281 308.873 68.739 300.566 60.564 298.029C60.564 298.029 69.194 300.106 73.508 307.259L73.281 308.873Z" fill="#828282"/>
<path d="M73.622 285.8C73.622 285.8 68.739 277.033 60.564 274.494C60.564 274.494 69.274 276.902 73.589 284.054L73.622 285.8Z" fill="#828282"/>
<path d="M73.487 297.402C73.487 297.402 68.739 288.8 60.563 286.262C60.563 286.262 69.193 288.339 73.507 295.491L73.487 297.402Z" fill="#828282"/>
<path d="M73.954 291.338C73.954 291.338 78.337 283.031 86.225 280.493C86.225 280.493 77.898 282.57 73.735 289.723L73.954 291.338Z" fill="#828282"/>
<path d="M73.954 302.875C73.954 302.875 78.337 294.569 86.225 292.03C86.225 292.03 77.898 294.107 73.735 301.259L73.954 302.875Z" fill="#828282"/>
<path d="M419.177 467.473C419.177 467.473 419.876 463.449 424.535 461.083C429.194 458.717 434.085 457.297 434.085 457.297C434.085 457.297 431.523 461.32 428.262 463.686C425.001 466.052 419.177 468.42 419.177 468.42" fill="#567BD2"/>
<path d="M403.104 478.123C403.104 478.123 403.803 474.099 408.462 471.733C413.121 469.367 418.012 467.946 418.012 467.946C418.012 467.946 415.45 471.97 412.189 474.336C408.928 476.702 403.104 479.069 403.104 479.069" fill="#567BD2"/>
<path d="M415.45 463.449C415.45 463.449 416.149 459.426 420.808 457.06C425.467 454.694 430.358 453.273 430.358 453.273C430.358 453.273 427.796 457.297 424.535 459.663C421.274 462.029 415.45 464.396 415.45 464.396" fill="#567BD2"/>
<path d="M400.076 473.389C400.076 473.389 400.775 469.366 405.433 466.999C410.092 464.633 414.984 463.213 414.984 463.213C414.984 463.213 412.422 467.236 409.161 469.602C405.9 471.969 400.076 474.336 400.076 474.336" fill="#567BD2"/>
<path d="M412.654 459.107C412.654 459.107 413.203 454.732 416.866 452.158C420.529 449.583 424.375 448.04 424.375 448.04C424.375 448.04 422.36 452.415 419.797 454.989C417.233 457.563 412.655 460.136 412.655 460.136" fill="#567BD2"/>
<path d="M398.781 468.989C398.781 468.989 399.982 464.75 403.99 462.776C407.997 460.802 412.03 459.873 412.03 459.873C412.03 459.873 409.381 463.884 406.459 466.029C403.538 468.174 398.626 470.007 398.626 470.007" fill="#567BD2"/>
<path d="M409.16 453.9C409.16 453.9 409.709 449.525 413.372 446.951C417.035 444.377 420.881 442.833 420.881 442.833C420.881 442.833 418.866 447.208 416.303 449.782C413.739 452.356 409.16 454.929 409.16 454.929" fill="#567BD2"/>
<path d="M393.938 461.087C393.938 461.087 395.841 457.123 400.123 455.88C404.405 454.638 408.536 454.429 408.536 454.429C408.536 454.429 405.245 457.916 402.004 459.517C398.762 461.118 393.613 462.062 393.613 462.062" fill="#567BD2"/>
<path d="M406.132 449.091C406.132 449.091 406.539 445.401 409.256 443.23C411.972 441.059 414.825 439.756 414.825 439.756C414.825 439.756 413.331 443.446 411.429 445.618C409.527 447.789 406.132 449.959 406.132 449.959" fill="#567BD2"/>
<path d="M394.279 455.131C394.279 455.131 395.993 451.852 399.305 450.847C402.617 449.842 405.741 449.696 405.741 449.696C405.741 449.696 403.016 452.57 400.463 453.879C397.909 455.187 393.966 455.938 393.966 455.938" fill="#567BD2"/>
<path d="M403.337 443.648C403.337 443.648 403.745 439.957 406.461 437.786C409.177 435.615 412.03 434.313 412.03 434.313C412.03 434.313 410.536 438.003 408.634 440.174C406.732 442.345 403.337 444.515 403.337 444.515" fill="#567BD2"/>
<path d="M390.875 449.601C390.875 449.601 392.678 446.371 396.015 445.46C399.353 444.549 402.479 444.491 402.479 444.491C402.479 444.491 399.677 447.288 397.089 448.524C394.501 449.761 390.538 450.401 390.538 450.401" fill="#567BD2"/>
<path d="M399.144 438.442C399.144 438.442 399.552 434.752 402.268 432.58C404.984 430.409 405.74 429.817 405.74 429.817C405.74 429.817 406.342 432.798 404.441 434.968C402.54 437.139 399.144 439.309 399.144 439.309" fill="#567BD2"/>
<path d="M389.374 444.623C389.374 444.623 391.162 441.384 394.495 440.457C397.828 439.531 398.752 439.283 398.752 439.283C398.752 439.283 398.166 442.267 395.584 443.516C393.001 444.764 389.042 445.423 389.042 445.423" fill="#567BD2"/>
<path d="M395.38 434.226C395.38 434.226 394.621 430.594 396.524 427.663C398.428 424.732 398.961 423.927 398.961 423.927C398.961 423.927 400.458 426.563 399.328 429.232C398.198 431.902 395.65 435.05 395.65 435.05" fill="#567BD2"/>
<path d="M385.573 439.263C385.573 439.263 387.623 436.188 391.022 435.55C394.421 434.912 395.361 434.745 395.361 434.745C395.361 434.745 394.53 437.668 391.852 438.692C389.175 439.715 385.175 440.032 385.175 440.032" fill="#567BD2"/>
<path d="M390.553 430.991C390.553 430.991 389.038 427.611 390.273 424.331C391.508 421.052 391.857 420.149 391.857 420.149C391.857 420.149 393.88 422.393 393.344 425.247C392.809 428.102 390.991 431.735 390.991 431.735" fill="#567BD2"/>
<path d="M381.347 434.948C381.347 434.948 383.544 431.98 386.97 431.514C390.395 431.047 391.343 430.927 391.343 430.927C391.343 430.927 390.371 433.806 387.647 434.693C384.923 435.581 380.913 435.696 380.913 435.696" fill="#567BD2"/>
<path d="M387.059 429.334C387.059 429.334 383.405 429.426 380.919 426.986C378.433 424.547 377.752 423.867 377.752 423.867C377.752 423.867 380.577 422.856 382.952 424.475C385.327 426.093 387.906 429.216 387.906 429.216" fill="#567BD2"/>
<path d="M420.108 469.875C420.254 469.875 420.398 469.81 420.498 469.685C420.671 469.466 420.638 469.147 420.423 468.971C420.352 468.911 413.219 462.987 407.978 452.335C402.663 441.535 394.518 432.121 387.708 428.909C387.457 428.79 387.16 428.902 387.044 429.155C386.928 429.41 387.037 429.712 387.287 429.83C393.906 432.952 401.862 442.178 407.083 452.79C412.427 463.65 419.722 469.701 419.795 469.762C419.887 469.838 419.998 469.875 420.108 469.875Z" fill="#567BD2"/>
<path d="M63.396 459.846C63.396 459.846 64.095 455.822 68.754 453.456C73.413 451.09 78.304 449.669 78.304 449.669C78.304 449.669 75.742 453.693 72.481 456.059C69.22 458.425 63.396 460.793 63.396 460.793" fill="#567BD2"/>
<path d="M47.323 470.496C47.323 470.496 48.022 466.473 52.68 464.107C57.339 461.741 62.23 460.32 62.23 460.32C62.23 460.32 59.668 464.344 56.407 466.71C53.146 469.076 47.322 471.443 47.322 471.443" fill="#567BD2"/>
<path d="M59.669 455.823C59.669 455.823 60.368 451.8 65.027 449.434C69.686 447.067 74.577 445.647 74.577 445.647C74.577 445.647 72.015 449.67 68.754 452.037C65.493 454.403 59.669 456.77 59.669 456.77" fill="#567BD2"/>
<path d="M44.295 465.763C44.295 465.763 44.994 461.74 49.652 459.373C54.311 457.007 59.202 455.587 59.202 455.587C59.202 455.587 56.64 459.61 53.379 461.976C50.118 464.342 44.294 466.71 44.294 466.71" fill="#567BD2"/>
<path d="M56.874 451.48C56.874 451.48 57.423 447.105 61.086 444.531C64.749 441.957 68.595 440.413 68.595 440.413C68.595 440.413 66.58 444.789 64.016 447.362C61.452 449.936 56.874 452.509 56.874 452.509" fill="#567BD2"/>
<path d="M43 461.362C43 461.362 44.202 457.123 48.209 455.149C52.216 453.175 56.249 452.246 56.249 452.246C56.249 452.246 53.6 456.257 50.678 458.402C47.757 460.547 42.845 462.38 42.845 462.38" fill="#567BD2"/>
<path d="M53.379 446.274C53.379 446.274 53.928 441.899 57.591 439.325C61.254 436.751 65.1 435.207 65.1 435.207C65.1 435.207 63.086 439.582 60.522 442.156C57.958 444.73 53.38 447.303 53.38 447.303" fill="#567BD2"/>
<path d="M38.157 453.46C38.157 453.46 40.06 449.496 44.342 448.253C48.624 447.011 52.755 446.802 52.755 446.802C52.755 446.802 49.464 450.289 46.223 451.889C42.981 453.491 37.832 454.434 37.832 454.434" fill="#567BD2"/>
<path d="M50.351 441.464C50.351 441.464 50.759 437.774 53.475 435.603C56.191 433.432 59.044 432.129 59.044 432.129C59.044 432.129 57.55 435.819 55.648 437.99C53.747 440.162 50.351 442.332 50.351 442.332" fill="#567BD2"/>
<path d="M38.498 447.505C38.498 447.505 40.212 444.226 43.524 443.221C46.836 442.216 49.96 442.07 49.96 442.07C49.96 442.07 47.235 444.944 44.682 446.253C42.128 447.561 38.185 448.312 38.185 448.312" fill="#567BD2"/>
<path d="M47.556 436.022C47.556 436.022 47.964 432.331 50.68 430.16C53.397 427.989 56.249 426.687 56.249 426.687C56.249 426.687 54.755 430.377 52.853 432.548C50.951 434.719 47.556 436.889 47.556 436.889" fill="#567BD2"/>
<path d="M35.094 441.974C35.094 441.974 36.897 438.743 40.234 437.832C43.572 436.921 46.698 436.863 46.698 436.863C46.698 436.863 43.896 439.66 41.308 440.896C38.72 442.133 34.757 442.773 34.757 442.773" fill="#567BD2"/>
<path d="M43.363 430.815C43.363 430.815 43.771 427.124 46.487 424.953C49.203 422.782 49.959 422.19 49.959 422.19C49.959 422.19 50.561 425.171 48.66 427.341C46.759 429.512 43.363 431.682 43.363 431.682" fill="#567BD2"/>
<path d="M33.593 436.997C33.593 436.997 35.381 433.758 38.714 432.831C42.047 431.905 42.971 431.657 42.971 431.657C42.971 431.657 42.385 434.641 39.803 435.889C37.22 437.138 33.261 437.796 33.261 437.796" fill="#567BD2"/>
<path d="M39.599 426.599C39.599 426.599 38.84 422.967 40.743 420.036C42.647 417.105 43.18 416.3 43.18 416.3C43.18 416.3 44.677 418.935 43.547 421.604C42.417 424.275 39.869 427.423 39.869 427.423" fill="#567BD2"/>
<path d="M29.793 431.636C29.793 431.636 31.843 428.562 35.242 427.924C38.641 427.286 39.581 427.119 39.581 427.119C39.581 427.119 38.749 430.042 36.072 431.065C33.395 432.089 29.395 432.406 29.395 432.406" fill="#567BD2"/>
<path d="M34.772 423.364C34.772 423.364 33.257 419.985 34.492 416.704C35.727 413.425 36.076 412.521 36.076 412.521C36.076 412.521 38.099 414.766 37.563 417.62C37.028 420.475 35.21 424.108 35.21 424.108" fill="#567BD2"/>
<path d="M25.566 427.322C25.566 427.322 27.763 424.354 31.189 423.887C34.614 423.421 35.562 423.301 35.562 423.301C35.562 423.301 34.59 426.18 31.866 427.066C29.142 427.954 25.132 428.07 25.132 428.07" fill="#567BD2"/>
<path d="M31.278 421.708C31.278 421.708 27.624 421.8 25.138 419.36C22.652 416.921 21.971 416.241 21.971 416.241C21.971 416.241 24.796 415.229 27.171 416.849C29.546 418.467 32.125 421.59 32.125 421.59" fill="#567BD2"/>
<path d="M64.327 462.247C64.473 462.247 64.618 462.184 64.717 462.059C64.89 461.84 64.857 461.521 64.642 461.345C64.571 461.285 57.438 455.361 52.197 444.709C46.882 433.909 38.737 424.496 31.927 421.283C31.677 421.164 31.379 421.276 31.263 421.529C31.147 421.784 31.256 422.086 31.506 422.204C38.125 425.326 46.081 434.552 51.302 445.163C56.646 456.024 63.941 462.076 64.014 462.136C64.106 462.211 64.217 462.247 64.327 462.247Z" fill="#567BD2"/>
<path d="M446.095 456.255C446.095 456.255 450.951 454.5 456.496 458.277C462.041 462.054 466.695 466.695 466.695 466.695C466.695 466.695 460.66 466.34 455.999 464.145C451.339 461.951 445.056 456.855 445.056 456.855" fill="#567BD2"/>
<path d="M421.959 450.398C421.959 450.398 426.195 447.415 432.519 449.589C438.842 451.764 444.528 455.009 444.528 455.009C444.528 455.009 438.611 456.267 433.548 455.385C428.485 454.504 421.111 451.251 421.111 451.251" fill="#567BD2"/>
<path d="M448.149 449.488C448.149 449.488 453.005 447.732 458.55 451.509C464.095 455.287 468.749 459.927 468.749 459.927C468.749 459.927 462.714 459.572 458.053 457.378C453.393 455.183 447.11 450.087 447.11 450.087" fill="#567BD2"/>
<path d="M426.021 438.978C426.021 438.978 430.877 437.222 436.422 441C441.967 444.777 446.621 449.417 446.621 449.417C446.621 449.417 440.586 449.063 435.925 446.868C431.265 444.674 424.982 439.577 424.982 439.577" fill="#567BD2"/>
<path d="M451.144 443.573C451.144 443.573 456.291 441.426 461.433 443.944C466.575 446.463 470.703 449.84 470.703 449.84C470.703 449.84 464.628 450.329 460.182 449.055C455.736 447.781 450.014 444.226 450.014 444.226" fill="#567BD2"/>
<path d="M431.521 434.12C431.521 434.12 436.931 432.797 441.633 436.085C446.335 439.372 449.907 443.351 449.907 443.351C449.907 443.351 443.83 442.89 439.628 440.94C435.426 438.99 430.307 434.588 430.307 434.588" fill="#567BD2"/>
<path d="M454.643 436.321C454.643 436.321 459.79 434.173 464.932 436.692C470.074 439.211 474.202 442.588 474.202 442.588C474.202 442.588 468.127 443.077 463.681 441.803C459.235 440.528 453.513 436.974 453.513 436.974" fill="#567BD2"/>
<path d="M437.124 423.633C437.124 423.633 442.677 423.279 446.751 427.342C450.825 431.405 453.667 435.949 453.667 435.949C453.667 435.949 447.759 434.43 443.951 431.773C440.143 429.116 435.848 423.881 435.848 423.881" fill="#567BD2"/>
<path d="M458.001 429.848C458.001 429.848 462.307 427.974 466.408 429.676C470.509 431.377 473.743 433.782 473.743 433.782C473.743 433.782 468.749 434.426 465.164 433.647C461.579 432.868 457.048 430.397 457.048 430.397" fill="#567BD2"/>
<path d="M443.872 420.251C443.872 420.251 448.555 420.116 451.753 423.23C454.951 426.344 457.089 429.789 457.089 429.789C457.089 429.789 452.211 428.523 449.159 426.46C446.107 424.396 442.787 420.407 442.787 420.407" fill="#567BD2"/>
<path d="M462.203 423.238C462.203 423.238 466.509 421.364 470.61 423.066C474.711 424.767 477.945 427.173 477.945 427.173C477.945 427.173 472.951 427.817 469.366 427.038C465.781 426.259 461.25 423.788 461.25 423.788" fill="#567BD2"/>
<path d="M447.784 412.894C447.784 412.894 452.469 412.89 455.581 416.094C458.693 419.296 460.737 422.8 460.737 422.8C460.737 422.8 455.896 421.398 452.901 419.249C449.906 417.102 446.696 413.019 446.696 413.019" fill="#567BD2"/>
<path d="M465.26 415.195C465.26 415.195 469.566 413.32 473.667 415.022C477.768 416.724 478.896 417.204 478.896 417.204C478.896 417.204 476.008 419.773 472.423 418.994C468.838 418.215 464.307 415.744 464.307 415.744" fill="#567BD2"/>
<path d="M452.295 408.045C452.295 408.045 456.98 408.019 460.107 411.207C463.234 414.395 464.09 415.284 464.09 415.284C464.09 415.284 460.446 416.509 457.441 414.376C454.436 412.242 451.208 408.175 451.208 408.175" fill="#567BD2"/>
<path d="M467.502 408.264C467.502 408.264 471.006 405.106 475.426 405.405C479.846 405.706 481.066 405.801 481.066 405.801C481.066 405.801 479.123 409.164 475.479 409.574C471.835 409.984 466.768 409.091 466.768 409.091" fill="#567BD2"/>
<path d="M455.769 400.348C455.769 400.348 460.439 400.724 463.29 404.169C466.141 407.613 466.92 408.572 466.92 408.572C466.92 408.572 463.187 409.482 460.37 407.097C457.553 404.712 454.674 400.384 454.674 400.384" fill="#567BD2"/>
<path d="M467.994 400.75C467.994 400.75 470.743 396.895 475.122 396.218C479.501 395.54 480.713 395.364 480.713 395.364C480.713 395.364 479.532 399.075 476.062 400.276C472.592 401.476 467.455 401.718 467.455 401.718" fill="#567BD2"/>
<path d="M457.827 392.83C457.827 392.83 462.473 393.44 465.154 397.023C467.834 400.607 468.566 401.604 468.566 401.604C468.566 401.604 464.794 402.324 462.096 399.802C459.398 397.28 456.733 392.812 456.733 392.812" fill="#567BD2"/>
<path d="M467.6 395.745C467.6 395.745 465.187 391.665 466.289 387.306C467.391 382.947 467.706 381.746 467.706 381.746C467.706 381.746 470.603 384.304 470.331 388.019C470.059 391.733 468.265 396.629 468.265 396.629" fill="#567BD2"/>
<path d="M444.608 459.017C444.849 459.017 445.061 458.84 445.101 458.591C445.12 458.473 447.107 446.618 455.493 433.911C463.96 421.08 469.121 405.935 468.337 396.222C468.314 395.943 468.077 395.738 467.798 395.757C467.523 395.781 467.318 396.026 467.34 396.305C468.108 405.805 463.013 420.691 454.662 433.345C446.149 446.246 444.134 458.305 444.114 458.425C444.07 458.702 444.254 458.964 444.527 459.008C444.555 459.015 444.582 459.017 444.608 459.017Z" fill="#567BD2"/>
<path d="M85.438 457.008C85.438 457.008 89.302 453.543 95.833 454.954C102.363 456.364 108.382 458.912 108.382 458.912C108.382 458.912 102.65 460.864 97.521 460.588C92.391 460.313 84.694 457.957 84.694 457.957" fill="#567BD2"/>
<path d="M60.89 460.694C60.89 460.694 63.73 456.324 70.396 455.952C77.062 455.581 83.527 456.443 83.527 456.443C83.527 456.443 78.496 459.849 73.473 460.943C68.451 462.038 60.415 461.807 60.415 461.807" fill="#567BD2"/>
<path d="M84.867 449.951C84.867 449.951 88.731 446.486 95.262 447.897C101.792 449.307 107.811 451.855 107.811 451.855C107.811 451.855 102.079 453.807 96.95 453.531C91.82 453.256 84.123 450.9 84.123 450.9" fill="#567BD2"/>
<path d="M60.479 448.559C60.479 448.559 64.343 445.094 70.874 446.505C77.404 447.915 83.423 450.463 83.423 450.463C83.423 450.463 77.691 452.415 72.561 452.139C67.432 451.864 59.734 449.508 59.734 449.508" fill="#567BD2"/>
<path d="M85.481 443.33C85.481 443.33 89.473 439.391 95.168 439.785C100.863 440.179 105.932 441.754 105.932 441.754C105.932 441.754 100.472 444.503 95.878 445.001C91.284 445.499 84.672 444.361 84.672 444.361" fill="#567BD2"/>
<path d="M63.806 441.97C63.806 441.97 68.343 438.698 73.912 439.972C79.481 441.246 84.253 443.59 84.253 443.59C84.253 443.59 78.443 445.458 73.829 445.237C69.214 445.015 62.851 442.863 62.851 442.863" fill="#567BD2"/>
<path d="M86.074 435.275C86.074 435.275 90.065 431.336 95.76 431.73C101.455 432.124 106.524 433.699 106.524 433.699C106.524 433.699 101.064 436.448 96.471 436.946C91.877 437.444 85.265 436.306 85.265 436.306" fill="#567BD2"/>
<path d="M65.167 430.12C65.167 430.12 70.192 427.691 75.461 429.922C80.73 432.154 85.033 435.298 85.033 435.298C85.033 435.298 78.993 436.121 74.486 435.094C69.978 434.067 64.075 430.832 64.075 430.832" fill="#567BD2"/>
<path d="M86.821 427.997C86.821 427.997 90.132 424.629 94.561 424.66C98.991 424.689 102.874 425.699 102.874 425.699C102.874 425.699 98.474 428.185 94.861 428.817C91.248 429.449 86.138 428.868 86.138 428.868" fill="#567BD2"/>
<path d="M70.192 424.428C70.192 424.428 74.489 422.532 78.598 424.214C82.707 425.895 85.953 428.285 85.953 428.285C85.953 428.285 80.962 428.953 77.373 428.192C73.784 427.431 69.242 424.982 69.242 424.982" fill="#567BD2"/>
<path d="M88.301 420.272C88.301 420.272 91.612 416.904 96.041 416.935C100.471 416.964 104.354 417.974 104.354 417.974C104.354 417.974 99.954 420.46 96.341 421.092C92.728 421.724 87.618 421.143 87.618 421.143" fill="#567BD2"/>
<path d="M71.13 416.121C71.13 416.121 75.477 414.347 79.539 416.143C83.6 417.94 86.78 420.42 86.78 420.42C86.78 420.42 81.773 420.948 78.206 420.087C74.639 419.224 70.165 416.649 70.165 416.649" fill="#567BD2"/>
<path d="M88.194 411.651C88.194 411.651 91.505 408.283 95.934 408.313C100.364 408.343 101.587 408.363 101.587 408.363C101.587 408.363 99.847 411.839 96.234 412.471C92.621 413.103 87.511 412.521 87.511 412.521" fill="#567BD2"/>
<path d="M73.541 409.915C73.541 409.915 77.88 408.12 81.95 409.898C86.02 411.675 87.139 412.177 87.139 412.177C87.139 412.177 84.205 414.692 80.635 413.847C77.065 413.002 72.579 410.448 72.579 410.448" fill="#567BD2"/>
<path d="M87.737 404.371C87.737 404.371 89.833 400.114 94.045 398.722C98.258 397.33 99.425 396.957 99.425 396.957C99.425 396.957 98.853 400.814 95.621 402.572C92.389 404.329 87.359 405.417 87.359 405.417" fill="#567BD2"/>
<path d="M73.947 401.457C73.947 401.457 78.42 400.041 82.327 402.161C86.235 404.282 87.309 404.877 87.309 404.877C87.309 404.877 84.177 407.132 80.689 405.983C77.201 404.835 72.944 401.905 72.944 401.905" fill="#567BD2"/>
<path d="M85.443 397.209C85.443 397.209 86.583 392.593 90.4 390.308C94.217 388.023 95.277 387.402 95.277 387.402C95.277 387.402 95.539 391.293 92.758 393.719C89.976 396.146 85.297 398.312 85.297 398.312" fill="#567BD2"/>
<path d="M73.105 393.702C73.105 393.702 77.641 392.511 81.441 394.825C85.241 397.138 86.285 397.786 86.285 397.786C86.285 397.786 83.047 399.881 79.62 398.56C76.192 397.238 72.082 394.098 72.082 394.098" fill="#567BD2"/>
<path d="M83.244 392.714C83.244 392.714 79.51 389.839 78.937 385.376C78.364 380.914 78.217 379.679 78.217 379.679C78.217 379.679 81.843 380.958 82.95 384.509C84.057 388.06 84.185 393.284 84.185 393.284" fill="#567BD2"/>
<path d="M85.07 460.134C85.294 460.043 85.425 459.799 85.372 459.553C85.346 459.436 82.85 447.681 85.981 432.717C89.142 417.608 88.387 401.597 84.103 392.879C83.98 392.629 83.685 392.529 83.432 392.651C83.185 392.776 83.085 393.081 83.208 393.333C87.399 401.862 88.121 417.604 85.002 432.507C81.824 447.699 84.369 459.656 84.395 459.775C84.455 460.048 84.722 460.222 84.992 460.16C85.019 460.153 85.045 460.143 85.07 460.134Z" fill="#567BD2"/>
<path d="M26.472 479.552C27.816 477.601 35.118 467.021 35.669 466.601C36.276 466.139 42.802 462.592 43.257 462.592C43.712 462.592 52.818 458.429 54.791 458.429C56.764 458.429 63.896 463.672 63.896 463.672L69.511 471.072L77.998 474.081L82.291 479.552H26.472Z" fill="white" stroke="#334060" stroke-miterlimit="10" stroke-linecap="round" stroke-linejoin="round"/>
<path d="M29.323 475.433L34.759 477.468L38.705 477.006C38.705 477.006 44.623 475.773 45.23 475.927C45.837 476.081 48.417 477.16 49.631 477.469C50.845 477.778 57.067 476.853 57.826 476.853C58.585 476.853 66.324 471.148 66.324 471.148L61.923 462.359L62.076 462.385C63.15 463.125 63.896 463.673 63.896 463.673L69.511 471.074L77.998 474.082L82.291 479.552H26.472C26.919 478.904 28.026 477.3 29.323 475.433Z" fill="#334060" stroke="#334060" stroke-miterlimit="10" stroke-linecap="round" stroke-linejoin="round"/>
<path d="M44.326 479.552C46.409 476.527 57.726 460.128 58.58 459.478C59.521 458.761 69.635 453.264 70.341 453.264C71.047 453.264 85.159 446.811 88.217 446.811C91.275 446.811 102.33 454.936 102.33 454.936L111.033 466.407L124.187 471.071L130.842 479.552H44.326Z" fill="white" stroke="#334060" stroke-miterlimit="10" stroke-linecap="round" stroke-linejoin="round"/>
<path d="M48.744 473.168L57.169 476.321L63.285 475.604C63.285 475.604 72.458 473.692 73.399 473.932C74.34 474.17 78.339 475.844 80.22 476.321C82.102 476.8 91.746 475.365 92.922 475.365C94.098 475.365 106.094 466.523 106.094 466.523L99.273 452.901L99.511 452.94C101.175 454.087 102.331 454.936 102.331 454.936L111.034 466.407L124.188 471.07L130.842 479.552H44.326C45.019 478.546 46.734 476.06 48.744 473.168Z" fill="#334060" stroke="#334060" stroke-miterlimit="10" stroke-linecap="round" stroke-linejoin="round"/>
<path d="M472.36 479.459C472.36 479.459 466.781 466.928 466.781 466.033C466.781 465.138 451.512 455.293 451.512 455.293L434.188 457.978C434.188 457.978 424.498 465.437 423.323 465.437C422.149 465.437 415.101 465.735 415.101 465.735L403.062 471.702L398.07 479.459H472.36Z" fill="white" stroke="#334060" stroke-miterlimit="10" stroke-linecap="round" stroke-linejoin="round"/>
<path d="M466.781 466.034C466.781 466.929 472.36 479.46 472.36 479.46H398.071L403.063 471.703L405.706 475.88L426.848 477.67L448.87 473.195L458.854 465.439L451.513 455.295C451.513 455.295 466.781 465.139 466.781 466.034Z" fill="#334060"/>
<path d="M200.876 155.996C200.876 155.996 248.769 165.985 255.933 170.716C265.592 177.095 270.904 185.436 266.075 196.231C261.245 207.026 254.001 204.573 254.001 204.573C254.001 204.573 259.796 276.212 254.001 291.422C248.206 306.633 221.643 309.577 211.018 306.633C200.393 303.689 166.586 296.819 163.689 286.515C160.792 276.211 166.104 172.677 168.035 162.864C169.967 153.051 181.075 145.691 200.876 155.996Z" fill="#334060" stroke="#334060" stroke-miterlimit="10" stroke-linecap="round" stroke-linejoin="round"/>
<path d="M266.075 196.231C261.246 207.026 254.001 204.573 254.001 204.573C254.001 204.573 259.797 276.212 254.001 291.422C248.206 306.633 221.643 309.577 211.018 306.633C200.393 303.688 166.586 296.819 163.689 286.515C163.316 285.187 163.079 282.302 162.954 278.277C173.494 282.591 185.31 287.433 197.013 291.913C230.337 304.671 239.03 288.478 239.996 265.908C240.962 243.336 234.683 190.343 239.03 178.076C243.377 165.809 255.933 170.716 255.933 170.716C265.592 177.095 270.904 185.436 266.075 196.231Z" fill="white" stroke="#334060" stroke-miterlimit="10" stroke-linecap="round" stroke-linejoin="round"/>
<path d="M254.001 204.573C254.001 204.573 242.893 203.591 242.41 191.324C241.927 179.057 249.171 174.151 256.899 180.038C264.626 185.926 261.245 195.249 256.899 196.23C252.552 197.212 246.757 187.398 250.138 185.435C253.519 183.472 255.451 187.398 255.451 190.343" stroke="#334060" stroke-miterlimit="10" stroke-linecap="round" stroke-linejoin="round"/>
<path d="M92.172 120.637C92.172 120.637 90.06 115.171 85.716 109.377C81.372 103.584 76.484 97.1022 73.905 97.3775C71.326 97.6528 72.004 98.4809 74.041 100.412C76.077 102.344 80.014 108.55 80.014 108.55C80.014 108.55 75.127 111.999 74.855 113.93C74.583 115.862 76.213 117.792 79.063 119.999C81.914 122.205 83.679 122.619 84.493 123.034C85.308 123.447 87.48 126.895 87.48 126.895L91.824 121.378L92.172 120.637Z" fill="white" stroke="#334060" stroke-miterlimit="10" stroke-linecap="round" stroke-linejoin="round"/>
<path d="M72.788 110.728C72.788 110.728 71.687 112.183 71.907 113.414C72.127 114.645 73.779 117.891 74.55 117.219C75.321 116.547 74.33 114.086 74.22 113.302C74.11 112.519 74.22 109.834 74.22 109.834L72.788 110.728Z" fill="white" stroke="#334060" stroke-miterlimit="10" stroke-linecap="round" stroke-linejoin="round"/>
<path d="M76.422 106.588C76.422 106.588 72.897 109.049 72.787 110.728C72.677 112.406 75.431 115.764 76.312 116.323C77.193 116.883 77.744 116.323 77.523 115.316C77.303 114.309 76.422 110.281 76.422 110.281C76.422 110.281 78.405 107.595 77.964 106.476C77.524 105.357 76.422 106.588 76.422 106.588Z" fill="white" stroke="#334060" stroke-miterlimit="10" stroke-linecap="round" stroke-linejoin="round"/>
<path d="M77.524 105.357C77.524 105.357 74.33 107.819 74.44 109.386C74.55 110.952 76.863 115.764 77.854 116.547C78.845 117.331 79.616 115.764 79.286 114.645C78.955 113.527 78.515 110.057 78.515 110.057L80.014 108.55" fill="white"/>
<path d="M77.524 105.357C77.524 105.357 74.33 107.819 74.44 109.386C74.55 110.952 76.863 115.764 77.854 116.547C78.845 117.331 79.616 115.764 79.286 114.645C78.955 113.527 78.515 110.057 78.515 110.057L80.014 108.55" stroke="#334060" stroke-miterlimit="10" stroke-linecap="round" stroke-linejoin="round"/>
<path d="M85.037 111.171C85.037 111.171 80.829 110.206 78.249 108.964C75.67 107.722 71.461 106.757 71.054 108.136C70.647 109.516 73.498 110.619 75.941 111.446C78.385 112.274 78.928 113.101 79.878 115.17C80.828 117.238 82.457 119.86 84.629 120.135" fill="white"/>
<path d="M85.037 111.171C85.037 111.171 80.829 110.206 78.249 108.964C75.67 107.722 71.461 106.757 71.054 108.136C70.647 109.516 73.498 110.619 75.941 111.446C78.385 112.274 78.928 113.101 79.878 115.17C80.828 117.238 82.457 119.86 84.629 120.135" stroke="#334060" stroke-miterlimit="10" stroke-linecap="round" stroke-linejoin="round"/>
<path d="M228.899 266.123C228.899 266.123 231.678 285.92 230.012 299.805C228.345 313.691 218.679 349.928 220.679 362.12C222.679 374.312 222.346 389.89 220.012 402.082C217.679 414.274 214.345 445.432 214.345 445.432C214.345 445.432 218.012 449.157 217.345 452.544C216.678 455.93 212.678 465.413 212.678 465.413V471.063L193.678 467.785C193.678 467.785 192.345 461.011 192.345 458.979C192.345 456.947 194.678 459.317 192.012 454.577C189.345 449.835 187.345 445.094 188.679 441.707C190.012 438.321 194.346 435.273 193.679 428.837C193.012 422.403 190.346 376.344 189.679 368.893C189.012 361.443 186.012 308.272 186.012 308.272L181.679 305.901C181.679 305.901 175.679 385.149 175.679 394.971C175.679 404.793 174.679 425.789 175.012 430.193C175.345 434.595 179.345 443.739 178.345 445.094C177.345 446.449 174.345 453.561 174.345 453.561C174.345 453.561 174.678 458.302 174.678 461.689C174.678 465.075 173.011 469.478 173.011 469.478L151.011 465.753C151.011 465.753 151.678 457.963 152.344 456.609C153.011 455.254 148.677 451.529 148.677 448.819C148.677 446.109 149.677 443.401 149.677 442.385C149.677 441.369 145.344 432.225 145.01 425.451C144.677 418.677 150.343 370.587 150.343 368.893C150.343 367.2 140.343 325.883 140.343 305.224C140.343 284.565 147.676 259.504 147.676 259.504C147.676 259.504 180.009 268.986 201.009 265.6C222.009 262.213 225.342 261.197 225.342 261.197L228.899 266.123Z" fill="#567BD2" stroke="#334060" stroke-miterlimit="10" stroke-linecap="round" stroke-linejoin="round"/>
<path d="M147.678 259.504C147.678 259.504 180.011 268.986 201.011 265.6C222.011 262.213 225.344 261.197 225.344 261.197L228.898 266.123C228.898 266.123 229.151 267.93 229.458 270.825C224.685 274.116 208.827 283.047 181.677 279.146C159.188 275.915 149.708 269.698 145.948 266.064C146.948 262.001 147.678 259.504 147.678 259.504Z" fill="#334060" stroke="#334060" stroke-miterlimit="10" stroke-linecap="round" stroke-linejoin="round"/>
<path d="M186.011 276.098L186.345 280.162L175.678 278.808L174.345 274.066L186.011 276.098Z" fill="white" stroke="#334060" stroke-miterlimit="10" stroke-linecap="round" stroke-linejoin="round"/>
<path d="M212.011 281.516V273.388L207.011 274.066V282.194" fill="#616161"/>
<path d="M212.011 281.516V273.388L207.011 274.066V282.194" stroke="#334060" stroke-miterlimit="10" stroke-linecap="round" stroke-linejoin="round"/>
<path d="M155.345 275.082V268.308L151.678 265.938C151.678 265.938 151.345 273.05 151.345 274.066" fill="#616161"/>
<path d="M155.345 275.082V268.308L151.678 265.938C151.678 265.938 151.345 273.05 151.345 274.066" stroke="#334060" stroke-miterlimit="10" stroke-linecap="round" stroke-linejoin="round"/>
<path d="M181.011 281.856L180.678 287.952C180.678 287.952 175.345 288.629 176.678 291.677C178.011 294.725 180.678 298.789 180.678 298.789" stroke="#334060" stroke-miterlimit="10" stroke-linecap="round" stroke-linejoin="round"/>
<path d="M187.678 287.612C187.678 287.612 172.678 284.564 166.678 281.516" stroke="#334060" stroke-miterlimit="10" stroke-linecap="round" stroke-linejoin="round"/>
<path d="M174.345 280.162L175.012 284.904C175.012 284.904 171.679 287.952 172.679 290.322C173.679 292.692 174.679 295.064 174.679 295.064" stroke="#334060" stroke-miterlimit="10" stroke-linecap="round" stroke-linejoin="round"/>
<path d="M181.678 305.9L166.678 299.128L180.13 312.83L181.678 305.9Z" fill="#334060" stroke="#334060" stroke-miterlimit="10" stroke-linecap="round" stroke-linejoin="round"/>
<path d="M213.345 282.194C213.345 282.194 219.012 294.724 226.345 298.112" stroke="#334060" stroke-miterlimit="10" stroke-linecap="round" stroke-linejoin="round"/>
<path d="M153.011 275.42C153.011 275.42 152.344 282.871 145.011 288.29" stroke="#334060" stroke-miterlimit="10" stroke-linecap="round" stroke-linejoin="round"/>
<path d="M222.345 325.882H204.678V330.284L219.678 330.962" stroke="#334060" stroke-miterlimit="10" stroke-linecap="round" stroke-linejoin="round"/>
<path d="M204.678 330.284C204.678 332.655 202.011 361.78 205.678 368.554C209.345 375.328 217.011 377.02 218.345 373.972" stroke="#334060" stroke-miterlimit="10" stroke-linecap="round" stroke-linejoin="round"/>
<path d="M142.678 318.77C144.011 318.77 152.011 319.786 152.011 319.786V325.544L144.011 323.173" stroke="#334060" stroke-miterlimit="10" stroke-linecap="round" stroke-linejoin="round"/>
<path d="M152.011 325.544C152.011 325.544 158.011 363.136 156.344 365.506C154.677 367.876 152.344 367.2 152.344 367.2" stroke="#334060" stroke-miterlimit="10" stroke-linecap="round" stroke-linejoin="round"/>
<path d="M168.011 455.93C168.011 455.93 159.011 454.914 156.344 453.898C153.677 452.882 172.011 449.496 172.011 449.496C173 449.496 173.666 447.464 172.333 445.093C171 442.723 175 443.061 176 444.755C177 446.449 171 451.189 172.333 452.883C173.666 454.577 173 459.657 171.333 458.979C169.667 458.3 168.011 455.93 168.011 455.93Z" fill="#334060" stroke="#334060" stroke-miterlimit="10" stroke-linecap="round" stroke-linejoin="round"/>
<path d="M199.011 457.284C199.011 457.284 208.011 459.994 211.344 459.655C214.677 459.316 194.677 452.204 194.677 452.204C194.677 452.204 190.023 452.544 199.011 457.284Z" fill="#334060" stroke="#334060" stroke-miterlimit="10" stroke-linecap="round" stroke-linejoin="round"/>
<path d="M153.197 166.333C153.791 166.489 160.961 164.361 166.008 164.558C171.055 164.756 182.895 167.911 183.672 166.925C184.448 165.938 184.271 158.448 184.271 157.857C184.271 157.266 182.12 157.064 177.461 154.106C172.802 151.147 170.085 147.006 170.861 141.09C171.637 135.174 176.49 118.017 176.49 118.017C176.49 118.017 178.625 115.256 183.866 114.861C189.107 114.467 204.053 120.777 208.712 124.721C213.371 128.665 215.506 131.821 213.176 137.54C210.847 143.259 202.112 156.866 201.141 160.022C200.17 163.178 200.753 167.319 202.5 168.503C204.247 169.686 219.193 175.997 219.97 176.588C220.746 177.179 225.405 178.363 227.734 186.054C230.063 193.745 219.97 233.78 219.387 235.555C218.805 237.329 229.286 262.178 228.898 266.123C228.51 270.067 206.77 276.18 188.524 275.589C170.278 274.998 152.032 267.108 149.703 264.348C147.374 261.586 146.209 259.812 147.374 256.854C148.539 253.895 159.409 226.681 159.409 226.681C159.409 226.681 148.733 218.2 148.733 212.876C148.733 207.552 153.78 198.874 153.78 198.874C153.78 198.874 128.49 186.615 115.679 175.176C102.868 163.738 91.396 135.033 89.649 131.484C87.902 127.934 87.32 126.159 87.32 126.159L92.173 120.637C92.173 120.637 110.225 139.766 119.736 148.838C129.246 157.91 146.403 164.558 153.197 166.333Z" fill="#808080" stroke="#334060" stroke-miterlimit="10" stroke-linecap="round" stroke-linejoin="round"/>
<path d="M131.651 175.799L153.779 198.873L147.18 185.857" stroke="#334060" stroke-miterlimit="10" stroke-linecap="round" stroke-linejoin="round"/>
<path d="M95.083 123.99L88.678 129.116L96.333 137.922" stroke="#334060" stroke-miterlimit="10" stroke-linecap="round" stroke-linejoin="round"/>
<path d="M201.17 235.452L186.422 228.819" stroke="#334060" stroke-miterlimit="10" stroke-linecap="round" stroke-linejoin="round"/>
<path d="M181.104 228.574L194.159 234.224" stroke="#334060" stroke-miterlimit="10" stroke-linecap="round" stroke-linejoin="round"/>
<path d="M219.97 176.588C219.97 176.588 211.678 192.108 210.678 206.671C209.678 221.233 227.011 243.247 227.011 243.247L222.344 243.924C222.344 243.924 208.011 225.636 205.677 212.09C203.344 198.544 211.677 173.482 211.677 173.482C211.677 173.482 217.595 173.937 219.97 176.588Z" fill="#334060" stroke="#334060" stroke-miterlimit="10" stroke-linecap="round" stroke-linejoin="round"/>
<path d="M218.417 134.384C218.417 134.384 225.017 129.059 228.899 129.454C232.781 129.848 238.022 140.103 235.11 146.808C232.198 153.513 226.958 156.865 222.105 152.921C217.252 148.977 215.311 143.258 215.311 140.102C215.311 136.949 218.417 134.384 218.417 134.384Z" fill="#334060" stroke="#334060" stroke-miterlimit="10" stroke-linecap="round" stroke-linejoin="round"/>
<path d="M221.523 131.23C221.523 131.23 229.87 125.511 233.946 127.285C238.022 129.06 238.605 132.61 238.605 132.61" stroke="#334060" stroke-miterlimit="10" stroke-linecap="round" stroke-linejoin="round"/>
<path d="M179.667 191.432C177.909 185.777 179.71 173.797 179.495 166.732C181.742 167.104 183.398 167.273 183.672 166.925C184.448 165.938 184.271 158.448 184.271 157.857C184.271 157.266 182.12 157.064 177.461 154.106C172.802 151.147 170.085 147.006 170.861 141.09C171.637 135.174 176.49 118.017 176.49 118.017C176.49 118.017 178.625 115.255 183.866 114.861C189.107 114.467 204.053 120.777 208.712 124.721C213.371 128.665 215.506 131.821 213.177 137.54C210.848 143.259 202.113 156.867 201.142 160.022C200.171 163.178 200.754 167.319 202.501 168.503C203.075 168.891 205.075 169.834 207.525 170.944C206.757 173.85 203.875 183.529 197.842 190.985C190.66 199.859 181.996 198.926 179.667 191.432Z" fill="white" stroke="#334060" stroke-miterlimit="10" stroke-linecap="round" stroke-linejoin="round"/>
<path d="M203.277 121.763C203.277 121.763 192.319 126.001 187.704 125.263C183.089 124.524 176.033 121.749 176.033 121.749L176.489 118.016L203.277 121.763Z" fill="#334060" stroke="#334060" stroke-miterlimit="10" stroke-linecap="round" stroke-linejoin="round"/>
<path d="M199.589 119.199C198.938 118.937 200.365 127.483 203.665 130.637C206.965 133.793 209.1 134.778 209.876 136.553C210.652 138.328 211.041 139.117 212.205 138.131C213.37 137.145 217.834 137.737 217.834 137.737L219.581 134.976C219.581 134.976 208.906 122.946 199.589 119.199Z" fill="#334060" stroke="#334060" stroke-miterlimit="10" stroke-linecap="round" stroke-linejoin="round"/>
<path d="M192.617 129.966C192.393 131.197 192.639 132.276 193.166 132.375C193.693 132.473 194.302 131.555 194.526 130.323C194.75 129.092 194.504 128.013 193.977 127.914C193.45 127.816 192.841 128.733 192.617 129.966Z" fill="#334060"/>
<path d="M180 125.825C179.776 127.056 180.022 128.135 180.549 128.233C181.076 128.332 181.685 127.415 181.909 126.182C182.133 124.951 181.887 123.872 181.36 123.773C180.833 123.674 180.224 124.592 180 125.825Z" fill="#334060"/>
<path d="M183.09 124.524C183.09 124.524 184.449 128.271 182.896 128.862C181.343 129.454 176.684 132.412 178.626 134.778C180.567 137.145 183.673 135.962 184.449 135.765C185.226 135.568 184.449 142.668 184.449 142.668C184.449 142.668 189.108 143.654 192.019 142.274C194.931 140.893 197.842 138.526 197.842 138.526" stroke="#334060" stroke-miterlimit="10" stroke-linecap="round" stroke-linejoin="round"/>
<path d="M196.871 139.315C196.871 139.315 196.094 143.259 193.959 146.415C191.824 149.57 190.659 147.006 190.271 145.428C189.883 143.85 189.883 142.865 189.883 142.865C189.883 142.865 196.095 142.076 196.871 139.315Z" fill="#334060" stroke="#334060" stroke-miterlimit="10" stroke-linecap="round" stroke-linejoin="round"/>
<path d="M199.589 127.286C199.589 127.286 198.618 123.736 194.93 122.355Z" fill="#334060"/>
<path d="M199.589 127.286C199.589 127.286 198.618 123.736 194.93 122.355" stroke="#334060" stroke-miterlimit="10" stroke-linecap="round" stroke-linejoin="round"/>
<path d="M208.129 140.301C208.711 140.301 213.37 134.78 218.223 136.752C223.076 138.724 219.582 147.007 215.894 147.796C212.206 148.584 205.995 144.443 205.995 144.443" fill="white"/>
<path d="M208.129 140.301C208.711 140.301 213.37 134.78 218.223 136.752C223.076 138.724 219.582 147.007 215.894 147.796C212.206 148.584 205.995 144.443 205.995 144.443" stroke="#334060" stroke-miterlimit="10" stroke-linecap="round" stroke-linejoin="round"/>
<path d="M216.509 130.834C216.509 130.834 203.31 116.832 188.946 111.902C174.582 106.972 174 106.775 174 106.775C174 106.775 177.494 99.8718 179.629 94.9422C181.764 90.0115 200.398 92.3788 206.61 94.1538C212.821 95.9287 220.392 108.156 221.168 112.298C221.944 116.438 216.509 130.834 216.509 130.834Z" fill="#567BD2" stroke="#334060" stroke-miterlimit="10" stroke-linecap="round" stroke-linejoin="round"/>
<path d="M203.277 121.762C203.277 121.762 187.554 123.537 178.043 120.777C168.532 118.017 155.915 109.93 156.691 108.549C157.467 107.169 177.072 110.916 177.072 110.916C177.072 110.916 199.395 116.439 203.277 121.762Z" fill="#567BD2" stroke="#334060" stroke-miterlimit="10" stroke-linecap="round" stroke-linejoin="round"/>
<path d="M213.742 220.714C213.742 220.714 206.247 219.24 204.071 217.275C201.895 215.31 202.862 209.414 202.862 209.414C202.862 209.414 200.928 205.73 201.653 204.256C202.378 202.781 213.016 206.221 213.016 206.221C213.016 206.221 209.873 203.519 208.664 201.799C207.455 200.08 209.631 199.097 210.356 200.08C211.081 201.062 215.191 205.484 216.158 206.958C217.125 208.432 217.609 214.819 217.609 214.819L222.444 218.258L221.235 223.662L213.742 220.714Z" fill="white" stroke="#334060" stroke-miterlimit="10" stroke-linecap="round" stroke-linejoin="round"/>
<path d="M222.011 177.884C236.498 184.826 251.344 218.863 255.344 226.314C261.906 238.536 251.011 259.842 232.344 241.554C225.57 234.917 217.677 224.96 217.677 224.96L219.344 215.138L230.677 221.234L220.344 211.074" fill="#808080"/>
<path d="M222.011 177.884C236.498 184.826 251.344 218.863 255.344 226.314C261.906 238.536 251.011 259.842 232.344 241.554C225.57 234.917 217.677 224.96 217.677 224.96L219.344 215.138L230.677 221.234L220.344 211.074" stroke="#334060" stroke-miterlimit="10" stroke-linecap="round" stroke-linejoin="round"/>
<path d="M224.333 218.864L222.667 228.346" stroke="#334060" stroke-miterlimit="10" stroke-linecap="round" stroke-linejoin="round"/>
<path d="M230.678 221.234L246.667 226.652" stroke="#334060" stroke-miterlimit="10" stroke-linecap="round" stroke-linejoin="round"/>
<path d="M251.011 226.314C251.011 226.314 243.344 221.572 235.011 222.25" stroke="#334060" stroke-miterlimit="10" stroke-linecap="round" stroke-linejoin="round"/>
<path d="M241.011 219.54C241.011 219.54 235.011 218.863 232.678 221.911" stroke="#334060" stroke-miterlimit="10" stroke-linecap="round" stroke-linejoin="round"/>
<path d="M171.678 164.676L153.779 198.873C153.779 198.873 151.678 195.834 155.011 186.012C158.344 176.191 164.011 164.338 164.011 164.338C164.011 164.338 170.011 164 171.678 164.676Z" fill="#334060" stroke="#334060" stroke-miterlimit="10" stroke-linecap="round" stroke-linejoin="round"/>
<path d="M193.678 467.784C193.678 467.784 197.761 462.191 203.761 464.731C209.761 467.271 212.761 469.646 213.761 473.71C214.761 477.774 214.011 479.552 214.011 479.552H191.011C191.011 479.552 190.761 474.98 191.511 472.186C192.261 469.392 193.678 467.784 193.678 467.784Z" fill="#334060" stroke="#334060" stroke-miterlimit="10" stroke-linecap="round" stroke-linejoin="round"/>
<path d="M191.122 474.472H213.922C214.646 477.978 214.012 479.552 214.012 479.552H191.012C191.012 479.552 190.87 476.95 191.122 474.472Z" fill="white" stroke="#334060" stroke-miterlimit="10" stroke-linecap="round" stroke-linejoin="round"/>
<path d="M173.011 469.476V479.552H132.011C132.011 479.552 132.511 474.218 135.511 471.932C138.511 469.646 150.011 468.122 150.011 468.122L151.011 465.752L173.011 469.476Z" fill="#334060" stroke="#334060" stroke-miterlimit="10" stroke-linecap="round" stroke-linejoin="round"/>
<path d="M133.25 474.98H173.011V479.552H132.011C132.011 479.552 132.235 477.221 133.25 474.98Z" fill="white" stroke="#334060" stroke-miterlimit="10" stroke-linecap="round" stroke-linejoin="round"/>
<path d="M184.27 157.857L191.904 158.673L184.27 163.163V157.857Z" fill="#334060" stroke="#334060" stroke-miterlimit="10" stroke-linecap="round" stroke-linejoin="round"/>
<path d="M213.667 451.188C213.667 451.188 210.334 448.479 207.667 445.77C205 443.06 207.667 444.416 209.667 441.028C211.667 437.642 216 428.159 216 428.159C216 428.159 214.689 444.415 214.345 445.431C214 446.447 218.667 449.833 216.667 451.188C214.667 452.544 213.667 451.188 213.667 451.188Z" fill="#334060" stroke="#334060" stroke-miterlimit="10" stroke-linecap="round" stroke-linejoin="round"/>
<path d="M154 446.448C154 446.448 165 439.674 167 433.578C169 427.482 153.333 440.012 152.667 447.124L154 446.448Z" fill="#334060" stroke="#334060" stroke-miterlimit="10" stroke-linecap="round" stroke-linejoin="round"/>
<path d="M371.639 361.768C371.639 361.768 373.139 382.088 372.139 392.756C371.139 403.424 365.639 436.444 365.639 436.444L354.639 436.952C354.639 436.952 350.639 395.804 349.639 385.644C348.639 375.484 348.639 360.752 348.639 360.752L371.639 361.768Z" fill="white" stroke="#334060" stroke-miterlimit="10" stroke-linecap="round" stroke-linejoin="round"/>
<path d="M353.463 424.852L367.514 424.93C366.455 431.551 365.64 436.444 365.64 436.444L354.64 436.952C354.64 436.952 354.146 431.875 353.463 424.852Z" fill="white" stroke="#334060" stroke-miterlimit="10" stroke-linecap="round" stroke-linejoin="round"/>
<path d="M348.722 367.516C348.65 364.018 348.641 361.453 348.64 360.881L348.957 360.767L371.64 361.769C371.64 361.769 372.089 367.866 372.332 375.132L348.722 367.516Z" fill="#334060" stroke="#334060" stroke-miterlimit="10" stroke-linecap="round" stroke-linejoin="round"/>
<path d="M306.52 361.768C306.52 361.768 305.02 382.088 306.02 392.756C307.02 403.424 312.52 436.444 312.52 436.444L323.52 436.952C323.52 436.952 327.52 395.804 328.52 385.644C329.52 375.484 329.52 360.752 329.52 360.752L306.52 361.768Z" fill="white" stroke="#334060" stroke-miterlimit="10" stroke-linecap="round" stroke-linejoin="round"/>
<path d="M324.713 424.691C324.021 431.799 323.52 436.953 323.52 436.953L312.52 436.445C312.52 436.445 311.679 431.394 310.596 424.613L324.713 424.691Z" fill="white" stroke="#334060" stroke-miterlimit="10" stroke-linecap="round" stroke-linejoin="round"/>
<path d="M306.52 361.768L329.52 360.752C329.52 360.752 329.519 367.482 329.211 374.981L306.162 367.547C306.35 364.08 306.52 361.768 306.52 361.768Z" fill="#334060" stroke="#334060" stroke-miterlimit="10" stroke-linecap="round" stroke-linejoin="round"/>
<path d="M350.951 429.767L368.833 431.419C368.833 431.419 366.278 456.901 366.278 457.609C366.278 458.318 370.226 463.508 372.781 467.991C375.336 472.473 373.71 479.552 373.71 479.552H349.326C349.326 479.552 347.004 474.833 347.004 470.114C347.004 465.395 349.094 457.845 349.094 456.429C349.094 455.014 350.951 429.767 350.951 429.767Z" fill="#616161" stroke="#334060" stroke-miterlimit="10" stroke-linecap="round" stroke-linejoin="round"/>
<path d="M365.814 467.047C362.098 468.462 353.506 467.047 353.273 464.924C353.041 462.8 355.131 458.317 355.131 458.317L355.351 430.173L365.132 431.077C364.521 438.125 362.836 457.821 363.027 458.789C363.26 459.968 369.53 465.631 365.814 467.047Z" fill="white" stroke="#334060" stroke-miterlimit="10" stroke-linecap="round" stroke-linejoin="round"/>
<path d="M366.511 434.485L353.931 440.904L365.086 446.225L354.804 451.35L364.019 454.602L353.274 456.665L364.989 459.037L353.058 460.515L366.976 463.979H353.274L365.571 460.712L353.058 458.643L364.019 457.066L354.222 454.011L364.407 452.04L355.132 445.811L365.086 440.805L354.667 434.014" stroke="#334060" stroke-miterlimit="10" stroke-linecap="round" stroke-linejoin="round"/>
<path d="M347.525 474.313H374.215C374.251 477.179 373.711 479.552 373.711 479.552H349.326C349.326 479.552 348.209 477.279 347.525 474.313Z" fill="white" stroke="#334060" stroke-miterlimit="10" stroke-linecap="round" stroke-linejoin="round"/>
<path d="M349.326 479.552L348.619 468.735" stroke="#334060" stroke-miterlimit="10" stroke-linecap="round" stroke-linejoin="round"/>
<path d="M373.575 471.525C373.575 471.525 371.454 467.595 366.962 466.961" stroke="#334060" stroke-miterlimit="10" stroke-linecap="round" stroke-linejoin="round"/>
<path d="M354.234 466.707C354.234 466.707 349.991 466.2 349.243 473.933" stroke="#334060" stroke-miterlimit="10" stroke-linecap="round" stroke-linejoin="round"/>
<path d="M327.89 430.856L308.64 431.872C308.64 431.872 309.64 455.24 308.64 457.78C307.64 460.32 305.42 462.066 299.14 464.13C290.64 466.924 285.64 469.21 285.14 472.766C284.64 476.322 284.89 479.37 284.89 479.37H310.39C310.39 479.37 312.89 477.084 314.89 476.576C316.89 476.068 316.89 476.068 316.89 476.068V479.37H329.89C329.89 479.37 332.39 471.75 330.39 467.178C328.39 462.606 326.14 453.716 326.14 450.668C326.14 447.62 327.89 430.856 327.89 430.856Z" fill="#616161" stroke="#334060" stroke-miterlimit="10" stroke-linecap="round" stroke-linejoin="round"/>
<path d="M329.89 479.37H316.89V476.068C316.89 476.068 316.89 476.068 314.89 476.576C312.89 477.084 310.39 479.37 310.39 479.37H284.89C284.89 479.37 284.72 477.28 284.944 474.544H330.949C330.586 477.231 329.89 479.37 329.89 479.37Z" fill="white" stroke="#334060" stroke-miterlimit="10" stroke-linecap="round" stroke-linejoin="round"/>
<path d="M300.702 464.425C300.702 464.425 306.941 467.468 306.442 474.186" stroke="#334060" stroke-miterlimit="10" stroke-linecap="round" stroke-linejoin="round"/>
<path d="M328.154 462.523C328.154 462.523 318.421 463.41 318.047 474.44" stroke="#334060" stroke-miterlimit="10" stroke-linecap="round" stroke-linejoin="round"/>
<path d="M300.36 463.714C305.712 461.825 307.707 460.147 308.639 457.78C309.639 455.24 308.639 431.872 308.639 431.872L313.414 431.62C313.328 435.266 312.904 453.06 312.681 457.832C312.432 463.157 304.071 465.312 302.823 465.312C301.913 465.312 300.675 465.103 300.36 463.714Z" fill="white" stroke="#334060" stroke-miterlimit="10" stroke-linecap="round" stroke-linejoin="round"/>
<path d="M308.439 436.152L314.428 435.9L308.813 438.688L313.555 440.716L308.938 442.238L313.679 444.773L308.938 446.802L313.804 448.704L309.062 450.479L313.056 452.761L309.062 454.409L313.305 458.086L308.314 458.212L311.309 462.27L307.191 460.368L308.688 463.537L304.446 461.636L305.444 464.678L302.075 463.157L302.823 465.312" stroke="#334060" stroke-miterlimit="10" stroke-linecap="round" stroke-linejoin="round"/>
<path d="M353.313 155.428C353.313 155.428 401.206 165.417 408.37 170.148C418.029 176.526 423.342 184.868 418.512 195.662C413.683 206.457 406.438 204.004 406.438 204.004C406.438 204.004 412.234 275.643 406.438 290.853C400.643 306.064 374.08 309.008 363.455 306.064C352.83 303.12 319.023 296.25 316.126 285.946C313.228 275.642 318.541 172.108 320.472 162.295C322.404 152.483 333.512 145.123 353.313 155.428Z" fill="#334060" stroke="#334060" stroke-miterlimit="10" stroke-linecap="round" stroke-linejoin="round"/>
<path d="M418.511 195.663C413.682 206.458 406.437 204.005 406.437 204.005C406.437 204.005 412.233 275.644 406.437 290.854C400.642 306.065 374.079 309.009 363.454 306.065C352.829 303.121 319.022 296.251 316.125 285.947C315.752 284.619 315.515 281.734 315.39 277.709C325.93 282.023 337.746 286.865 349.449 291.345C382.773 304.103 391.466 287.91 392.432 265.34C393.398 242.768 387.119 189.775 391.466 177.508C395.813 165.241 408.369 170.149 408.369 170.149C418.029 176.527 423.341 184.868 418.511 195.663Z" fill="white" stroke="#334060" stroke-miterlimit="10" stroke-linecap="round" stroke-linejoin="round"/>
<path d="M406.438 204.005C406.438 204.005 395.33 203.023 394.847 190.756C394.364 178.489 401.608 173.583 409.336 179.47C417.063 185.358 413.682 194.681 409.336 195.662C404.989 196.644 399.194 186.83 402.575 184.867C405.956 182.904 407.888 186.83 407.888 189.774" stroke="#334060" stroke-miterlimit="10" stroke-linecap="round" stroke-linejoin="round"/>
<path d="M377.14 265.248L385.14 365.324L291.14 364.816L306.14 260.676L377.14 265.248Z" fill="white" stroke="#334060" stroke-miterlimit="10" stroke-linecap="round" stroke-linejoin="round"/>
<path d="M377.14 274.138C376.39 274.646 304.64 270.582 304.64 270.582L306.14 264.232L377.14 267.026V274.138Z" fill="#616161" stroke="#334060" stroke-miterlimit="10" stroke-linecap="round" stroke-linejoin="round"/>
<path d="M334.14 364.816V292.68" stroke="#334060" stroke-miterlimit="10" stroke-linecap="round" stroke-linejoin="round"/>
<path d="M334.14 307.92L322.64 299.284L333.693 314.002L334.14 307.92Z" fill="#334060" stroke="#334060" stroke-miterlimit="10" stroke-linecap="round" stroke-linejoin="round"/>
<path d="M378.64 318.08L352.14 319.096V327.224L379.14 325.7" stroke="#334060" stroke-miterlimit="10" stroke-linecap="round" stroke-linejoin="round"/>
<path d="M351.64 330.78L353.14 353.64H381.14L380.64 336.368" stroke="#334060" stroke-miterlimit="10" stroke-linecap="round" stroke-linejoin="round"/>
<path d="M298.64 319.096L313.64 321.636V329.764L299.14 327.732" stroke="#334060" stroke-miterlimit="10" stroke-linecap="round" stroke-linejoin="round"/>
<path d="M313.64 329.764V353.64L295.14 353.132" stroke="#334060" stroke-miterlimit="10" stroke-linecap="round" stroke-linejoin="round"/>
<path d="M335.89 266.01L335.64 272.106L324.64 271.344L324.89 264.994L335.89 266.01Z" fill="white" stroke="#334060" stroke-miterlimit="10" stroke-linecap="round" stroke-linejoin="round"/>
<path d="M313.64 174.824C313.64 174.824 328.64 169.236 338.64 171.776C348.64 174.316 354.64 178.888 354.64 178.888L353.64 266.772L306.14 264.232L313.64 174.824Z" fill="#334060" stroke="#334060" stroke-miterlimit="10" stroke-linecap="round" stroke-linejoin="round"/>
<path d="M307.244 176.102C307.244 176.102 301.421 175.905 296.568 183.596C291.715 191.287 276.575 215.939 274.246 224.025C271.917 232.11 274.246 238.027 276.963 238.816C279.68 239.604 283.757 238.816 283.757 238.816C283.757 238.816 288.804 234.872 293.268 230.731C297.733 226.589 303.167 217.715 303.167 217.715L307.244 176.102Z" fill="#567BD2" stroke="#334060" stroke-miterlimit="10" stroke-linecap="round" stroke-linejoin="round"/>
<path d="M317.39 204.796L313.473 304.702L290.473 296.236C290.473 296.236 302.14 202.086 304.473 189.894C306.806 177.702 306.806 174.654 311.806 170.59C316.806 166.526 321.139 178.38 321.139 178.38L317.39 204.796Z" fill="#567BD2" stroke="#334060" stroke-miterlimit="10" stroke-linecap="round" stroke-linejoin="round"/>
<path d="M310.813 186.341C310.813 186.341 303.569 219.216 303.569 220.688C303.569 222.161 296.325 247.185 296.325 247.185L299.706 216.763L307.244 176.102L313.64 174.825L310.813 186.341Z" fill="#334060" stroke="#334060" stroke-miterlimit="10" stroke-linecap="round" stroke-linejoin="round"/>
<path d="M339.14 205.812C339.14 205.812 342.473 279.642 344.473 292.85C346.473 306.058 346.806 307.751 346.806 307.751C346.806 307.751 364.806 301.994 373.139 297.93C381.472 293.866 383.139 292.85 383.139 292.85C383.139 292.85 379.472 262.031 378.806 254.242C378.139 246.452 378.139 229.858 378.139 214.956C378.139 200.054 378.139 183.798 371.806 178.718C365.473 173.638 358.139 173.3 355.139 173.3C352.139 173.3 339.473 186.508 339.14 205.812Z" fill="#567BD2" stroke="#334060" stroke-miterlimit="10" stroke-linecap="round" stroke-linejoin="round"/>
<path d="M371.182 173.092L350.415 211.365L387.119 263.377L380.358 261.414C380.358 261.414 345.585 215.78 344.619 211.365C343.653 206.948 365.386 171.62 365.386 171.62L371.182 173.092Z" fill="#334060" stroke="#334060" stroke-miterlimit="10" stroke-linecap="round" stroke-linejoin="round"/>
<path d="M345.64 152.98C345.64 152.98 359.14 154.758 362.89 160.346C366.64 165.934 369.39 171.268 366.64 174.57C363.89 177.872 356.14 184.984 351.64 188.032C347.14 191.08 339.14 205.812 339.14 205.812C339.14 205.812 339.14 193.874 339.14 188.286C339.14 182.698 343.89 176.602 344.89 171.522C345.89 166.442 337.64 158.314 331.89 160.854C326.14 163.394 321.64 171.014 321.89 174.57C322.14 178.126 320.89 182.444 319.64 188.54C318.39 194.636 317.39 204.796 317.39 204.796C317.39 204.796 308.89 191.08 306.14 181.682C303.39 172.284 304.64 162.632 314.89 156.282C325.14 149.932 345.64 152.98 345.64 152.98Z" fill="#567BD2" stroke="#334060" stroke-miterlimit="10" stroke-linecap="round" stroke-linejoin="round"/>
<path d="M310.47 159.764C311.71 158.523 313.162 157.352 314.889 156.282C325.139 149.932 345.639 152.98 345.639 152.98C345.639 152.98 359.139 154.758 362.889 160.346C363.326 160.997 363.747 161.644 364.15 162.286C364.597 165.025 364.181 168.322 361.889 172.03C356.287 181.095 344.664 185.433 339.156 187.955C339.336 182.457 343.909 176.503 344.889 171.522C345.889 166.442 337.639 158.314 331.889 160.854C326.139 163.394 321.639 171.014 321.889 174.57C322.139 178.126 320.889 182.444 319.639 188.54C319.567 188.893 319.495 189.259 319.425 189.636C318.999 189.221 318.571 188.775 318.139 188.286C311.639 180.92 309.639 172.792 309.639 165.68C309.64 163.581 309.95 161.597 310.47 159.764Z" fill="white" stroke="#334060" stroke-miterlimit="10" stroke-linecap="round" stroke-linejoin="round"/>
<path d="M347.89 143.074C347.89 143.074 346.39 161.362 345.89 166.442C345.39 171.522 342.64 184.476 334.14 187.016C325.64 189.556 320.64 179.65 321.89 172.284C323.14 164.918 325.39 158.06 325.39 155.52C325.39 152.98 325.64 152.218 325.64 152.218L347.89 143.074Z" fill="white" stroke="#334060" stroke-miterlimit="10" stroke-linecap="round" stroke-linejoin="round"/>
<path d="M325.64 152.218L347.89 143.074C347.89 143.074 346.749 156.988 346.125 163.913L325.396 155.028C325.426 152.897 325.64 152.218 325.64 152.218Z" fill="#334060" stroke="#334060" stroke-miterlimit="10" stroke-linecap="round" stroke-linejoin="round"/>
<path d="M370.216 177.018C370.216 177.018 376.426 175.937 381.548 181.741C386.67 187.545 393.762 208.561 396.52 222.172C399.278 235.782 402.036 247.791 396.717 247.791C391.398 247.791 367.955 240.185 367.955 240.185V222.572" fill="#567BD2"/>
<path d="M370.216 177.018C370.216 177.018 376.426 175.937 381.548 181.741C386.67 187.545 393.762 208.561 396.52 222.172C399.278 235.782 402.036 247.791 396.717 247.791C391.398 247.791 367.955 240.185 367.955 240.185V222.572" stroke="#334060" stroke-miterlimit="10" stroke-linecap="round" stroke-linejoin="round"/>
<path d="M358.168 216.074C356.778 214.239 355.553 212.142 354.954 210.163C354.166 207.561 352.196 206.56 350.226 206.36C348.256 206.16 341.361 204.558 340.967 205.959C340.573 207.361 339.982 208.561 340.573 209.162C341.164 209.762 341.361 210.563 341.361 210.563C341.361 210.563 338.997 217.969 339.588 220.571C340.179 223.173 343.725 225.174 345.695 225.774C347.665 226.375 352.59 226.175 353.378 226.375C354.166 226.575 362.637 230.578 362.637 230.578C362.637 230.578 363.62 221.188 363.622 221.171C363.639 221.009 360.766 219.035 360.525 218.793C359.74 218.006 358.93 217.079 358.168 216.074Z" fill="white" stroke="#334060" stroke-miterlimit="10" stroke-linecap="round" stroke-linejoin="round"/>
<path d="M373.275 222.371L389.035 223.972" stroke="#334060" stroke-miterlimit="10" stroke-linecap="round" stroke-linejoin="round"/>
<path d="M361.849 217.167L359.288 241.185L370.32 242.586L373.472 221.17L361.849 217.167Z" fill="white" stroke="#334060" stroke-miterlimit="10" stroke-linecap="round" stroke-linejoin="round"/>
<path d="M293.656 240.985L297.538 222.644L288.803 224.419L293.656 240.985Z" fill="#616161" stroke="#334060" stroke-miterlimit="10" stroke-linecap="round" stroke-linejoin="round"/>
<path d="M295.238 214.024C296.554 212.287 297.714 210.302 298.281 208.427C299.027 205.964 300.892 205.016 302.758 204.827C304.623 204.637 311.152 203.121 311.525 204.448C311.898 205.775 312.458 206.911 311.898 207.479C311.338 208.048 311.152 208.806 311.152 208.806C311.152 208.806 313.39 215.819 312.831 218.283C312.271 220.746 308.914 222.641 307.048 223.21C305.183 223.779 300.519 223.589 299.773 223.779C299.027 223.968 291.006 227.759 291.006 227.759C291.006 227.759 290.075 218.868 290.073 218.852C290.057 218.699 292.777 216.829 293.006 216.6C293.75 215.855 294.517 214.978 295.238 214.024Z" fill="white" stroke="#334060" stroke-miterlimit="10" stroke-linecap="round" stroke-linejoin="round"/>
<path d="M292.88 214.559L293.656 240.985L280.651 239.604L282.204 215.939L292.88 214.559Z" fill="white" stroke="#334060" stroke-miterlimit="10" stroke-linecap="round" stroke-linejoin="round"/>
<path d="M320.371 108.835C320.371 108.835 316.376 131.162 316.376 135.221C316.376 139.28 320.039 151.121 321.703 153.827C323.368 156.534 331.692 158.226 335.021 156.872C338.351 155.519 347.673 146.724 349.671 143.003C351.669 139.281 352.335 135.899 352.335 135.899C352.335 135.899 356.996 137.929 360.659 132.516C364.322 127.104 362.324 122.029 358.661 121.69L355.332 122.705C355.332 122.705 361.325 112.218 359.327 107.483C357.329 102.747 333.356 101.055 328.362 101.055C323.368 101.054 320.371 108.835 320.371 108.835Z" fill="white" stroke="#334060" stroke-miterlimit="10" stroke-linecap="round" stroke-linejoin="round"/>
<path d="M338.575 114.331L343.886 116.722C344.662 117.072 344.977 118.022 344.567 118.777L344.371 119.138C343.989 119.84 343.124 120.102 342.427 119.727L337.312 116.976C336.593 116.589 336.329 115.677 336.728 114.956C337.093 114.294 337.893 114.024 338.575 114.331Z" fill="#334060" stroke="#334060" stroke-miterlimit="10" stroke-linecap="round" stroke-linejoin="round"/>
<path d="M328.709 113.153L328.734 113.247C328.91 113.904 328.512 114.576 327.859 114.726L323.764 115.666C323.029 115.834 322.331 115.266 322.331 114.501C322.331 113.954 322.698 113.476 323.221 113.343L327.291 112.309C327.91 112.151 328.54 112.527 328.709 113.153Z" fill="#334060" stroke="#334060" stroke-miterlimit="10" stroke-linecap="round" stroke-linejoin="round"/>
<path d="M317.774 142.668C317.774 142.668 318.425 134.952 319.944 133.85C321.463 132.747 332.745 133.629 332.745 133.629C332.745 133.629 344.244 130.322 344.461 132.968C344.62 134.909 344.111 145.233 343.632 150.065C340.417 153.192 336.832 156.135 335.02 156.871C331.69 158.225 323.366 156.533 321.702 153.826C320.701 152.199 318.981 147.271 317.766 142.715C317.771 142.692 317.774 142.668 317.774 142.668ZM320.378 143.991C321.68 148.399 324.5 151.045 325.802 150.383C327.104 149.722 328.189 145.534 329.274 145.093C330.359 144.652 331.227 146.857 332.528 148.841C333.83 150.825 337.301 151.487 338.82 150.164C340.339 148.841 342.075 136.717 342.075 135.174C342.075 133.63 326.236 136.056 326.236 136.056C326.236 136.056 322.331 135.615 321.246 135.835C320.161 136.054 319.076 139.581 320.378 143.991Z" fill="#808080" stroke="#545454" stroke-miterlimit="10" stroke-linecap="round" stroke-linejoin="round"/>
<path d="M339.471 136.274C339.471 136.274 333.179 140.682 326.453 139.14" stroke="#334060" stroke-miterlimit="10" stroke-linecap="round" stroke-linejoin="round"/>
<path d="M329.925 117.757C329.925 117.757 326.887 131.204 326.67 132.307C326.453 133.409 328.84 136.935 331.443 134.952C334.047 132.968 334.481 130.984 334.481 130.984" fill="white"/>
<path d="M329.925 117.757C329.925 117.757 326.887 131.204 326.67 132.307C326.453 133.409 328.84 136.935 331.443 134.952C334.047 132.968 334.481 130.984 334.481 130.984" stroke="#334060" stroke-miterlimit="10" stroke-linecap="round" stroke-linejoin="round"/>
<path d="M336.694 124.301C336.344 125.465 336.477 126.539 336.993 126.698C337.509 126.859 338.211 126.045 338.561 124.881C338.911 123.716 338.778 122.642 338.262 122.483C337.746 122.322 337.044 123.137 336.694 124.301Z" fill="#334060"/>
<path d="M323.856 122.493C323.718 123.702 324.04 124.734 324.576 124.797C325.112 124.86 325.658 123.931 325.796 122.722C325.934 121.513 325.612 120.48 325.076 120.417C324.54 120.354 323.994 121.283 323.856 122.493Z" fill="#334060"/>
<path d="M360.659 94.2889C360.659 94.2889 369.316 103.084 365.986 110.527C362.656 117.969 354.332 131.838 354.332 131.838H352.667L353 126.088C353 126.088 347.673 124.058 348.672 119.322C349.671 114.587 352.002 111.542 352.002 111.542C352.002 111.542 346.342 115.939 339.683 114.925C333.024 113.911 330.027 105.791 327.697 108.498C325.366 111.204 321.704 112.895 314.712 109.174C307.72 105.453 298.397 87.186 306.055 82.1121C313.713 77.0382 325.699 87.186 329.695 88.201C333.69 89.216 336.687 82.4504 345.677 85.156C354.666 87.8616 360.659 94.2889 360.659 94.2889Z" fill="#334060" stroke="#334060" stroke-miterlimit="10" stroke-linecap="round" stroke-linejoin="round"/>
<path d="M481 479.552H5" stroke="#334060" stroke-miterlimit="10" stroke-linecap="round" stroke-linejoin="round"/>
</svg>
